<svg id="wave" style="transform:rotate(0deg); transition: 0.3s" viewBox="0 0 1440 290" version="1.1" xmlns="http://www.w3.org/2000/svg"><defs><linearGradient id="sw-gradient-0" x1="0" x2="0" y1="1" y2="0"><stop stop-color="rgba(157, 78, 221, 1)" offset="0%"></stop><stop stop-color="rgba(208.569, 151.257, 255, 1)" offset="100%"></stop></linearGradient></defs><path style="transform:translate(0, 0px); opacity:1" fill="url(#sw-gradient-0)" d="M0,261L26.7,232C53.3,203,107,145,160,111.2C213.3,77,267,68,320,67.7C373.3,68,427,77,480,101.5C533.3,126,587,164,640,188.5C693.3,213,747,222,800,227.2C853.3,232,907,232,960,193.3C1013.3,155,1067,77,1120,67.7C1173.3,58,1227,116,1280,145C1333.3,174,1387,174,1440,149.8C1493.3,126,1547,77,1600,72.5C1653.3,68,1707,106,1760,130.5C1813.3,155,1867,164,1920,174C1973.3,184,2027,193,2080,169.2C2133.3,145,2187,87,2240,87C2293.3,87,2347,145,2400,140.2C2453.3,135,2507,68,2560,33.8C2613.3,0,2667,0,2720,0C2773.3,0,2827,0,2880,9.7C2933.3,19,2987,39,3040,58C3093.3,77,3147,97,3200,120.8C3253.3,145,3307,174,3360,178.8C3413.3,184,3467,164,3520,154.7C3573.3,145,3627,145,3680,149.8C3733.3,155,3787,164,3813,169.2L3840,174L3840,290L3813.3,290C3786.7,290,3733,290,3680,290C3626.7,290,3573,290,3520,290C3466.7,290,3413,290,3360,290C3306.7,290,3253,290,3200,290C3146.7,290,3093,290,3040,290C2986.7,290,2933,290,2880,290C2826.7,290,2773,290,2720,290C2666.7,290,2613,290,2560,290C2506.7,290,2453,290,2400,290C2346.7,290,2293,290,2240,290C2186.7,290,2133,290,2080,290C2026.7,290,1973,290,1920,290C1866.7,290,1813,290,1760,290C1706.7,290,1653,290,1600,290C1546.7,290,1493,290,1440,290C1386.7,290,1333,290,1280,290C1226.7,290,1173,290,1120,290C1066.7,290,1013,290,960,290C906.7,290,853,290,800,290C746.7,290,693,290,640,290C586.7,290,533,290,480,290C426.7,290,373,290,320,290C266.7,290,213,290,160,290C106.7,290,53,290,27,290L0,290Z"></path><defs><linearGradient id="sw-gradient-1" x1="0" x2="0" y1="1" y2="0"><stop stop-color="rgba(157, 78, 221, 1)" offset="0%"></stop><stop stop-color="rgba(215, 166, 255, 1)" offset="100%"></stop></linearGradient></defs><path style="transform:translate(0, 50px); opacity:0.9" fill="url(#sw-gradient-1)" d="M0,116L26.7,111.2C53.3,106,107,97,160,82.2C213.3,68,267,48,320,38.7C373.3,29,427,29,480,58C533.3,87,587,145,640,154.7C693.3,164,747,126,800,130.5C853.3,135,907,184,960,207.8C1013.3,232,1067,232,1120,198.2C1173.3,164,1227,97,1280,82.2C1333.3,68,1387,106,1440,145C1493.3,184,1547,222,1600,232C1653.3,242,1707,222,1760,188.5C1813.3,155,1867,106,1920,111.2C1973.3,116,2027,174,2080,207.8C2133.3,242,2187,251,2240,232C2293.3,213,2347,164,2400,135.3C2453.3,106,2507,97,2560,111.2C2613.3,126,2667,164,2720,174C2773.3,184,2827,164,2880,130.5C2933.3,97,2987,48,3040,67.7C3093.3,87,3147,174,3200,174C3253.3,174,3307,87,3360,82.2C3413.3,77,3467,155,3520,188.5C3573.3,222,3627,213,3680,188.5C3733.3,164,3787,126,3813,106.3L3840,87L3840,290L3813.3,290C3786.7,290,3733,290,3680,290C3626.7,290,3573,290,3520,290C3466.7,290,3413,290,3360,290C3306.7,290,3253,290,3200,290C3146.7,290,3093,290,3040,290C2986.7,290,2933,290,2880,290C2826.7,290,2773,290,2720,290C2666.7,290,2613,290,2560,290C2506.7,290,2453,290,2400,290C2346.7,290,2293,290,2240,290C2186.7,290,2133,290,2080,290C2026.7,290,1973,290,1920,290C1866.7,290,1813,290,1760,290C1706.7,290,1653,290,1600,290C1546.7,290,1493,290,1440,290C1386.7,290,1333,290,1280,290C1226.7,290,1173,290,1120,290C1066.7,290,1013,290,960,290C906.7,290,853,290,800,290C746.7,290,693,290,640,290C586.7,290,533,290,480,290C426.7,290,373,290,320,290C266.7,290,213,290,160,290C106.7,290,53,290,27,290L0,290Z"></path></svg>